<svg width="18" height="16" viewBox="0 0 18 16" fill="none" xmlns="http://www.w3.org/2000/svg">
<path d="M4.82237 10.2505L4.82236 10.2505C4.6317 10.4411 4.52698 10.694 4.52698 10.9636C4.52698 11.2332 4.6317 11.4861 4.82237 11.6767C5.21549 12.0699 5.85545 12.0699 6.24858 11.6767L11.7002 6.22516C11.9656 5.95972 12.396 5.95972 12.6614 6.22516C12.9268 6.49059 12.9269 6.92097 12.6614 7.18638C12.6614 7.18639 12.6614 7.18639 12.6614 7.18639L7.20984 12.638C6.28653 13.5613 4.78445 13.5613 3.86114 12.638C2.93783 11.7147 2.93783 10.2126 3.86114 9.28929L11.2726 1.8778C12.6094 0.541059 14.7842 0.541059 16.1209 1.8778C16.7682 2.52512 17.125 3.38644 17.125 4.30193C17.125 5.21741 16.7683 6.07874 16.1209 6.72606L8.53549 14.3115C7.68785 15.1591 6.56027 15.6262 5.36156 15.6262C4.16285 15.6262 3.03524 15.1591 2.18763 14.3115C0.437457 12.5613 0.437457 9.71385 2.18763 7.96368L7.81315 2.33816C8.07859 2.07272 8.50893 2.07272 8.77438 2.33816C9.03981 2.6036 9.03982 3.03398 8.77437 3.29939L3.14889 8.92491C1.9289 10.1449 1.92886 12.1302 3.14889 13.3503C3.74009 13.9415 4.52547 14.2668 5.36156 14.2668C6.19765 14.2668 6.98303 13.9415 7.57423 13.3503L15.1597 5.76484C15.5506 5.37392 15.7656 4.85476 15.7656 4.30193C15.7656 3.74911 15.5506 3.22997 15.1597 2.83902C14.3531 2.03247 13.0404 2.03247 12.2339 2.83902L4.82237 10.2505Z" fill="#7D7D7D" stroke="#7D7D7D" stroke-width="0.25"/>
</svg>
