<svg width="17" height="17" viewBox="0 0 17 17" fill="none" xmlns="http://www.w3.org/2000/svg">
<circle cx="8.88184" cy="8.96875" r="7.25" stroke="#7D7D7D" stroke-width="1.5"/>
<path d="M6.01476 6.83392C6.01476 6.31738 6.4337 5.89844 6.95025 5.89844C7.46664 5.89844 7.88558 6.31723 7.88558 6.83392C7.88558 7.35077 7.46664 7.76956 6.95025 7.76956C6.4337 7.76956 6.01476 7.35077 6.01476 6.83392ZM10.2565 6.83392C10.2565 6.31738 10.6757 5.89844 11.1923 5.89844C11.7087 5.89844 12.1276 6.31723 12.1276 6.83392C12.1276 7.35077 11.7088 7.76956 11.1923 7.76956C10.6757 7.76956 10.2565 7.35077 10.2565 6.83392ZM12.4681 10.6653C11.8884 12.006 10.5306 12.8723 9.00934 12.8723C7.45533 12.8723 6.08959 12.0016 5.5299 10.6542C5.43395 10.4235 5.54332 10.1586 5.77429 10.0626C5.83101 10.0393 5.88985 10.0281 5.94778 10.0281C6.12519 10.0281 6.29355 10.1329 6.36581 10.3072C6.78475 11.3158 7.82237 11.9672 9.00934 11.9672C10.1695 11.9672 11.201 11.3154 11.6373 10.3061C11.7366 10.0767 12.003 9.97091 12.2323 10.0703C12.4616 10.1697 12.5674 10.436 12.4681 10.6653Z" fill="#7D7D7D"/>
</svg>
