<svg width="24" height="24" viewBox="0 0 24 24" fill="none" xmlns="http://www.w3.org/2000/svg">
<path d="M11.7642 4.00001C13.8351 4.00375 15.7153 4.81982 17.1035 6.14641L18.2196 5.03033C18.6921 4.55785 19.5 4.89248 19.5 5.56069V9.75001C19.5 10.1642 19.1642 10.5 18.75 10.5H14.5606C13.8924 10.5 13.5578 9.69218 14.0303 9.21968L15.335 7.91499C14.3705 7.01189 13.1224 6.51165 11.7966 6.5002C8.90911 6.47527 6.47521 8.812 6.50018 11.7953C6.52386 14.6253 8.81823 17 11.75 17C13.0352 17 14.2499 16.5413 15.2071 15.7014C15.3554 15.5713 15.5792 15.5793 15.7186 15.7187L16.9581 16.9581C17.1103 17.1103 17.1028 17.3585 16.943 17.5029C15.5688 18.7442 13.7477 19.5 11.75 19.5C7.46981 19.5 4 16.0302 4 11.7501C4 7.47481 7.48894 3.99237 11.7642 4.00001Z" fill="#757575"/>
</svg>
