<svg width="16" height="19" viewBox="0 0 16 19" fill="none" xmlns="http://www.w3.org/2000/svg">
<path fill-rule="evenodd" clip-rule="evenodd" d="M10.3033 8.71354C9.60087 9.12674 8.83302 9.33333 7.99968 9.33333C7.16635 9.33333 6.39849 9.12674 5.69611 8.71354C4.99373 8.30035 4.44016 7.73524 4.0354 7.01823C3.63064 6.30121 3.42826 5.51736 3.42826 4.66667C3.42826 3.81597 3.63064 3.03212 4.0354 2.3151C4.44016 1.59809 4.99373 1.03299 5.69611 0.619792C6.39849 0.206597 7.16635 0 7.99968 0C8.83302 0 9.60087 0.206597 10.3033 0.619792C11.0056 1.03299 11.5592 1.59809 11.964 2.3151C12.3687 3.03212 12.5711 3.81597 12.5711 4.66667C12.5711 5.51736 12.3687 6.30121 11.964 7.01823C11.5592 7.73524 11.0056 8.30035 10.3033 8.71354ZM15.5 18.1562C15.1667 18.4965 14.7619 18.6667 14.2857 18.6667H1.71429C1.2381 18.6667 0.833333 18.4965 0.5 18.1562C0.166667 17.816 0 17.4028 0 16.9167V15.3854C0 14.5104 0.214286 13.6962 0.642857 12.9427C1.07143 12.1892 1.65476 11.5938 2.39286 11.1562C3.13095 10.7188 3.92857 10.5 4.78571 10.5H5.39286C6.22619 10.8889 7.09524 11.0833 8 11.0833C8.90476 11.0833 9.77381 10.8889 10.6071 10.5H11.2143C12.0714 10.5 12.869 10.7188 13.6071 11.1562C14.3452 11.5938 14.9286 12.1892 15.3571 12.9427C15.7857 13.6962 16 14.5104 16 15.3854V16.9167C16 17.4028 15.8333 17.816 15.5 18.1562Z" fill="#7D7D7D"/>
</svg>
